<svg width="320" height="320" viewBox="0 0 320 320" fill="none" xmlns="http://www.w3.org/2000/svg">
  <rect width="320" height="320" rx="48" fill="#FFF6EE"/>
  <circle cx="160" cy="116" r="62" fill="#E6B48B"/>
  <path d="M96 122C99 83 124 52 163 52C205 52 228 79 229 118C205 106 186 102 163 102C136 102 117 108 96 122Z" fill="#2E475E"/>
  <path d="M92 278C95 220 125 184 160 184C195 184 225 220 228 278" fill="#D79E64"/>
  <rect x="108" y="204" width="104" height="84" rx="36" fill="#E2AD77"/>
  <path d="M130 112C142 103 151 100 160 100C169 100 178 103 190 112" stroke="#274055" stroke-width="8" stroke-linecap="round"/>
  <circle cx="138" cy="126" r="6" fill="#3E2B22"/>
  <circle cx="182" cy="126" r="6" fill="#3E2B22"/>
  <path d="M142 154C148 159 154 162 160 162C166 162 172 159 178 154" stroke="#A56A52" stroke-width="6" stroke-linecap="round"/>
</svg>
